<svg xmlns="http://www.w3.org/2000/svg" xmlns:xlink="http://www.w3.org/1999/xlink" width="1964.5" height="1013" viewBox="0 0 1964.5 1013">
  <defs>
    <filter id="Path_6" x="0" y="0" width="1964.5" height="1013" filterUnits="userSpaceOnUse">
      <feOffset dx="5" input="SourceAlpha"/>
      <feGaussianBlur stdDeviation="7.5" result="blur"/>
      <feFlood flood-opacity="0.161"/>
      <feComposite operator="in" in2="blur"/>
      <feComposite in="SourceGraphic"/>
    </filter>
    <filter id="Line_6" x="208.5" y="126.58" width="506.65" height="61" filterUnits="userSpaceOnUse">
      <feOffset dy="3" input="SourceAlpha"/>
      <feGaussianBlur stdDeviation="10" result="blur-2"/>
      <feFlood/>
      <feComposite operator="in" in2="blur-2"/>
      <feComposite in="SourceGraphic"/>
    </filter>
    <filter id="Line_8" x="1219.5" y="126.58" width="506.65" height="61" filterUnits="userSpaceOnUse">
      <feOffset dy="3" input="SourceAlpha"/>
      <feGaussianBlur stdDeviation="10" result="blur-3"/>
      <feFlood/>
      <feComposite operator="in" in2="blur-3"/>
      <feComposite in="SourceGraphic"/>
    </filter>
  </defs>
  <g id="blogsback" transform="translate(17 -946.42)">
    <rect id="Hobbies" width="1920" height="968.92" transform="translate(0 975)" fill="#00565f"/>
    <g transform="matrix(1, 0, 0, 1, -17, 946.42)" filter="url(#Path_6)">
      <path id="Path_6-2" data-name="Path 6" d="M0,2.967V968H1919.5s-117.776-480.212-774.881-758.655C866.85,91.642,506.375-19.742,0,2.967" transform="translate(1937 990.5) rotate(180)" fill="#026b76"/>
    </g>
    <g transform="matrix(1, 0, 0, 1, -17, 946.42)" filter="url(#Line_6)">
      <line id="Line_6-2" data-name="Line 6" x2="446.65" transform="translate(238.5 154.08)" fill="none" stroke="#fff" stroke-width="1"/>
    </g>
    <g transform="matrix(1, 0, 0, 1, -17, 946.42)" filter="url(#Line_8)">
      <line id="Line_8-2" data-name="Line 8" x2="446.65" transform="translate(1249.5 154.08)" fill="none" stroke="#fff" stroke-width="1"/>
    </g>
  </g>
</svg>
